# xmcd
#
# Track frame offsets:
#	150
#	832
#	20622
#	37837
#	51295
#	81080
#	102437
#	121237
#	156507
#	175102
#	191435
#	211140
#	232095
#	255280
#
# Disc length: 3674 seconds
#
# Revision: 0
# Processed by: cddbd v1.5.1PL0 Copyright (c) Steve Scherf et al.
# Submitted via: dBpowerAMP V4.0
#
DISCID=a60e580e
DTITLE=Roomful of Blues - Live at the Wolf Trap
DYEAR=2002
DGENRE=Blues
TTITLE0=Introduction
TTITLE1=Two Bones and a Pick
TTITLE2=Let's Have a Party
TTITLE3=She's Mine
TTITLE4=My Tears
TTITLE5=All Right, OK, You Win
TTITLE6=Wee-Bee 3
TTITLE7=Blues Walk
TTITLE8=Turn it On! Turn it Up!
TTITLE9=Little Mae
TTITLE10=That Will Never Do
TTITLE11=Lost Mind
TTITLE12=Backseat Blues
TTITLE13=She'll  Be So Fine
EXTD=Roomtone Records, 2002, 
EXTT0=
EXTT1=
EXTT2=
EXTT3=
EXTT4=
EXTT5=
EXTT6=
EXTT7=
EXTT8=
EXTT9=
EXTT10=
EXTT11=
EXTT12=
EXTT13=
PLAYORDER=
